<mxfile host="app.diagrams.net" agent="Mozilla/5.0 (Windows NT 10.0; Win64; x64) AppleWebKit/537.36 (KHTML, like Gecko) Chrome/141.0.0.0 Safari/537.36" version="28.2.8">
  <diagram name="Page-1" id="aaaa8250-4180-3840-79b5-4cada1eebb92">
    <mxGraphModel dx="1617" dy="805" grid="1" gridSize="10" guides="1" tooltips="1" connect="1" arrows="1" fold="1" page="1" pageScale="1" pageWidth="850" pageHeight="1100" background="none" math="0" shadow="1" adaptiveColors="none">
      <root>
        <mxCell id="0" />
        <mxCell id="1" parent="0" />
        <mxCell id="tyKzm7KRj9yqGzWwmETo-13" value="AWS" style="ellipse;shape=cloud;whiteSpace=wrap;html=1;rounded=0;snapToPoint=0;fixDash=0;metaEdit=0;backgroundOutline=0;enumerate=0;comic=0;" vertex="1" parent="1">
          <mxGeometry width="300" height="220" as="geometry" />
        </mxCell>
        <mxCell id="tyKzm7KRj9yqGzWwmETo-1" value="" style="outlineConnect=0;dashed=0;verticalLabelPosition=bottom;verticalAlign=top;align=center;html=1;shape=mxgraph.aws3.volume;fillColor=#E05243;gradientColor=none;rotation=0;rounded=0;snapToPoint=0;fixDash=0;metaEdit=0;backgroundOutline=0;enumerate=0;comic=0;" vertex="1" parent="1">
          <mxGeometry x="130" y="370.43" width="82.5" height="99.57" as="geometry" />
        </mxCell>
        <mxCell id="tyKzm7KRj9yqGzWwmETo-10" style="edgeStyle=orthogonalEdgeStyle;rounded=0;orthogonalLoop=1;jettySize=auto;html=1;exitX=0.435;exitY=0.087;exitDx=0;exitDy=0;exitPerimeter=0;snapToPoint=0;fixDash=0;metaEdit=0;backgroundOutline=0;enumerate=0;comic=0;" edge="1" parent="1" source="tyKzm7KRj9yqGzWwmETo-2" target="tyKzm7KRj9yqGzWwmETo-1">
          <mxGeometry relative="1" as="geometry">
            <mxPoint x="29.996779999999966" y="737.590597910179" as="sourcePoint" />
            <mxPoint x="120" y="400.00499999999994" as="targetPoint" />
            <Array as="points">
              <mxPoint x="77" y="738" />
              <mxPoint x="41" y="738" />
              <mxPoint x="41" y="475" />
              <mxPoint x="120" y="475" />
              <mxPoint x="120" y="420" />
            </Array>
          </mxGeometry>
        </mxCell>
        <mxCell id="tyKzm7KRj9yqGzWwmETo-2" value="" style="verticalLabelPosition=bottom;aspect=fixed;html=1;shape=mxgraph.salesforce.web;fillColorStyles=fillColor2,fillColor3,fillColor4;fillColor2=#032d60;fillColor3=#0d9dda;fillColor4=#ffffff;fillColor=none;strokeColor=none;rounded=0;snapToPoint=0;fixDash=0;metaEdit=0;backgroundOutline=0;enumerate=0;comic=0;" vertex="1" parent="1">
          <mxGeometry x="30" y="760" width="108.61" height="85.8" as="geometry" />
        </mxCell>
        <mxCell id="tyKzm7KRj9yqGzWwmETo-9" style="edgeStyle=orthogonalEdgeStyle;rounded=0;orthogonalLoop=1;jettySize=auto;html=1;flowAnimation=1;snapToPoint=0;fixDash=0;metaEdit=0;backgroundOutline=0;enumerate=0;comic=0;" edge="1" parent="1" source="tyKzm7KRj9yqGzWwmETo-5" target="tyKzm7KRj9yqGzWwmETo-2">
          <mxGeometry relative="1" as="geometry">
            <mxPoint x="270" y="690" as="targetPoint" />
            <Array as="points" />
          </mxGeometry>
        </mxCell>
        <mxCell id="tyKzm7KRj9yqGzWwmETo-5" value="Actor" style="shape=umlActor;verticalLabelPosition=bottom;verticalAlign=top;html=1;outlineConnect=0;rounded=0;snapToPoint=0;fixDash=0;metaEdit=0;backgroundOutline=0;enumerate=0;comic=0;" vertex="1" parent="1">
          <mxGeometry x="640" y="757.9000000000001" width="70" height="90" as="geometry" />
        </mxCell>
        <mxCell id="tyKzm7KRj9yqGzWwmETo-16" style="edgeStyle=orthogonalEdgeStyle;rounded=0;orthogonalLoop=1;jettySize=auto;html=1;snapToPoint=0;fixDash=0;metaEdit=0;backgroundOutline=0;enumerate=0;comic=0;" edge="1" parent="1" source="tyKzm7KRj9yqGzWwmETo-15" target="tyKzm7KRj9yqGzWwmETo-1">
          <mxGeometry relative="1" as="geometry">
            <Array as="points" />
          </mxGeometry>
        </mxCell>
        <mxCell id="tyKzm7KRj9yqGzWwmETo-18" style="edgeStyle=orthogonalEdgeStyle;rounded=0;orthogonalLoop=1;jettySize=auto;html=1;snapToPoint=0;fixDash=0;metaEdit=0;backgroundOutline=0;enumerate=0;comic=0;" edge="1" parent="1" source="tyKzm7KRj9yqGzWwmETo-15" target="tyKzm7KRj9yqGzWwmETo-17">
          <mxGeometry relative="1" as="geometry" />
        </mxCell>
        <mxCell id="tyKzm7KRj9yqGzWwmETo-20" style="edgeStyle=orthogonalEdgeStyle;rounded=0;orthogonalLoop=1;jettySize=auto;html=1;snapToPoint=0;fixDash=0;metaEdit=0;backgroundOutline=0;enumerate=0;comic=0;" edge="1" parent="1" source="tyKzm7KRj9yqGzWwmETo-15">
          <mxGeometry relative="1" as="geometry">
            <mxPoint x="590" y="200" as="targetPoint" />
            <Array as="points">
              <mxPoint x="452" y="200" />
            </Array>
          </mxGeometry>
        </mxCell>
        <mxCell id="tyKzm7KRj9yqGzWwmETo-21" value="RDS" style="edgeLabel;html=1;align=center;verticalAlign=middle;resizable=0;points=[];rounded=0;snapToPoint=0;fixDash=0;metaEdit=0;backgroundOutline=0;enumerate=0;comic=0;" vertex="1" connectable="0" parent="tyKzm7KRj9yqGzWwmETo-20">
          <mxGeometry x="-0.2851" relative="1" as="geometry">
            <mxPoint y="1" as="offset" />
          </mxGeometry>
        </mxCell>
        <mxCell id="tyKzm7KRj9yqGzWwmETo-15" value="" style="verticalLabelPosition=bottom;html=1;verticalAlign=top;strokeWidth=1;align=center;outlineConnect=0;dashed=0;outlineConnect=0;shape=mxgraph.aws3d.application_server;fillColor=#ECECEC;strokeColor=#5E5E5E;aspect=fixed;strokeColor2=#292929;rounded=0;snapToPoint=0;fixDash=0;metaEdit=0;backgroundOutline=0;enumerate=0;comic=0;" vertex="1" parent="1">
          <mxGeometry x="390" y="358.21" width="123" height="124" as="geometry" />
        </mxCell>
        <mxCell id="tyKzm7KRj9yqGzWwmETo-17" value="" style="outlineConnect=0;dashed=0;verticalLabelPosition=bottom;verticalAlign=top;align=center;html=1;shape=mxgraph.aws3.volume;fillColor=#E05243;gradientColor=none;rotation=0;rounded=0;snapToPoint=0;fixDash=0;metaEdit=0;backgroundOutline=0;enumerate=0;comic=0;" vertex="1" parent="1">
          <mxGeometry x="700" y="370.43" width="82.5" height="99.57" as="geometry" />
        </mxCell>
        <mxCell id="tyKzm7KRj9yqGzWwmETo-19" value="" style="outlineConnect=0;dashed=0;verticalLabelPosition=bottom;verticalAlign=top;align=center;html=1;shape=mxgraph.aws3.rds;fillColor=#2E73B8;gradientColor=none;rounded=0;snapToPoint=0;fixDash=0;metaEdit=0;backgroundOutline=0;enumerate=0;comic=0;" vertex="1" parent="1">
          <mxGeometry x="600" y="170" width="72" height="81" as="geometry" />
        </mxCell>
        <mxCell id="tyKzm7KRj9yqGzWwmETo-22" value="EC2" style="text;html=1;whiteSpace=wrap;strokeColor=none;fillColor=none;align=center;verticalAlign=middle;rounded=0;snapToPoint=0;fixDash=0;metaEdit=0;backgroundOutline=0;enumerate=0;comic=0;" vertex="1" parent="1">
          <mxGeometry x="420" y="480" width="60" height="30" as="geometry" />
        </mxCell>
        <mxCell id="tyKzm7KRj9yqGzWwmETo-23" value="E - EBS" style="text;html=1;whiteSpace=wrap;strokeColor=none;fillColor=none;align=center;verticalAlign=middle;rounded=0;snapToPoint=0;fixDash=0;metaEdit=0;backgroundOutline=0;enumerate=0;comic=0;" vertex="1" parent="1">
          <mxGeometry x="711.25" y="470" width="60" height="30" as="geometry" />
        </mxCell>
        <mxCell id="tyKzm7KRj9yqGzWwmETo-24" value="D - EBS" style="text;html=1;whiteSpace=wrap;strokeColor=none;fillColor=none;align=center;verticalAlign=middle;rounded=0;snapToPoint=0;fixDash=0;metaEdit=0;backgroundOutline=0;enumerate=0;comic=0;" vertex="1" parent="1">
          <mxGeometry x="141.25" y="470" width="60" height="30" as="geometry" />
        </mxCell>
      </root>
    </mxGraphModel>
  </diagram>
</mxfile>
